<?xml version="1.0" encoding="utf-8"?>
<!-- Generator: Adobe Illustrator 16.0.3, SVG Export Plug-In . SVG Version: 6.00 Build 0)  -->
<!DOCTYPE svg PUBLIC "-//W3C//DTD SVG 1.1//EN" "http://www.w3.org/Graphics/SVG/1.1/DTD/svg11.dtd">
<svg version="1.1" xmlns="http://www.w3.org/2000/svg" xmlns:xlink="http://www.w3.org/1999/xlink" x="0px" y="0px" width="24px"
	 height="24px" viewBox="0 0 24 24" enable-background="new 0 0 24 24" xml:space="preserve">
<g id="Outline_Icons_1_">

	<g fill="#798483">
		<g>
			<path d="M14.11,13.309l-3.61-1.293v-1.45c1.174-0.944,1.947-2.531,1.947-4.329C12.447,3.634,10.635,1,8,1
				C5.382,1,3.553,3.578,3.553,6.236c0,1.798,0.773,3.385,1.947,4.329v1.45l-3.61,1.293C0.76,13.714,0,14.8,0,16.012V17.5
				C0,17.776,0.224,18,0.5,18h13c0.276,0,0.5-0.224,0.5-0.5S13.776,17,13.5,17H1v-0.988c0-0.791,0.493-1.499,1.227-1.762
				l3.941-1.412c0.199-0.071,0.332-0.26,0.332-0.471v-1.219c0.471,0.2,0.971,0.328,1.5,0.328s1.029-0.128,1.5-0.328v1.219
				c0,0.211,0.133,0.399,0.332,0.471l3.941,1.412c0.056,0.02,0.112,0.029,0.168,0.029c0.205,0,0.397-0.127,0.471-0.331
				C14.505,13.688,14.37,13.401,14.11,13.309z M8,2c1.657,0,3.043,1.445,3.372,3.363C10.312,5.545,9.667,5.19,9.027,4.07
				C8.936,3.911,8.765,3.819,8.583,3.818C8.4,3.822,8.234,3.925,8.149,4.088C7.807,4.745,6.602,5.344,5.621,5.344
				c-0.348,0-0.648-0.069-0.943-0.177C5.066,3.351,6.401,2,8,2z M4.556,6.193c0.336,0.098,0.685,0.15,1.065,0.15
				c1.064,0,2.228-0.487,2.935-1.17C9.19,6.013,9.937,6.411,10.88,6.411c0.176,0,0.367-0.029,0.558-0.058
				C11.386,8.637,9.868,10.477,8,10.477S4.536,8.611,4.556,6.193z"/>
			<path d="M16,12c0,0.276,0.224,0.5,0.5,0.5S17,12.276,17,12v-1.435c1.174-0.944,1.947-2.531,1.947-4.329
				C18.947,3.634,17.135,1,14.5,1C14.224,1,14,1.224,14,1.5S14.224,2,14.5,2c1.657,0,3.043,1.445,3.372,3.363
				c-1.062,0.182-1.705-0.173-2.345-1.293c-0.137-0.239-0.442-0.321-0.682-0.187c-0.24,0.138-0.323,0.443-0.186,0.683
				c0.717,1.254,1.574,1.845,2.721,1.845c0.176,0,0.367-0.029,0.558-0.058c-0.052,2.283-1.569,4.123-3.438,4.123
				c-0.276,0-0.5,0.224-0.5,0.5s0.224,0.5,0.5,0.5c0.529,0,1.029-0.128,1.5-0.328V12z"/>
			<path d="M23.933,16.249C23.843,16.095,23.678,16,23.5,16H21v-4.5c0-0.227-0.152-0.425-0.372-0.483
				c-0.222-0.056-0.45,0.039-0.562,0.235l-4,7c-0.088,0.154-0.088,0.345,0.001,0.499C16.157,18.905,16.322,19,16.5,19H19v4.5
				c0,0.227,0.152,0.425,0.372,0.483C19.415,23.994,19.458,24,19.5,24c0.176,0,0.344-0.094,0.434-0.252l4-7
				C24.022,16.594,24.022,16.403,23.933,16.249z M20,21.617V18.5c0-0.276-0.224-0.5-0.5-0.5h-2.138L20,13.383V16.5
				c0,0.276,0.224,0.5,0.5,0.5h2.138L20,21.617z"/>
		</g>
	</g>
</g>
<g id="Invisible_Shape">
	<rect fill="none" width="24" height="24"/>
</g>
</svg>
