<?xml version="1.0" encoding="utf-8"?>
<!-- Generator: Adobe Illustrator 16.0.4, SVG Export Plug-In . SVG Version: 6.00 Build 0)  -->
<!DOCTYPE svg PUBLIC "-//W3C//DTD SVG 1.0//EN" "http://www.w3.org/TR/2001/REC-SVG-20010904/DTD/svg10.dtd">
<svg version="1.0" id="Vrstva_1" xmlns="http://www.w3.org/2000/svg" xmlns:xlink="http://www.w3.org/1999/xlink" x="0px" y="0px"
	 width="658.1px" height="94.8px" viewBox="0 0 658.1 94.8" enable-background="new 0 0 658.1 94.8" xml:space="preserve">
<g fill="#798483">
	<path d="M72.6,2.5v16.8H46.9v74.5H25.7V19.3H0V2.5H72.6z"/>
	<path d="M65,28.8h15.5c1.4,0,2.6,0.3,3.6,0.9c1,0.6,1.6,1.4,1.8,2.4l6.5,29.1c0.5,2.2,1,4.4,1.4,6.5c0.4,2.1,0.8,4.2,1.1,6.2
		c0.6-2,1.2-4.1,1.8-6.2c0.6-2.1,1.3-4.2,1.9-6.5l8.1-29.2c0.3-1,0.9-1.8,1.8-2.4c1-0.6,2.1-1,3.3-1h8.6c1.4,0,2.6,0.3,3.5,1
		c1,0.6,1.6,1.5,1.8,2.4l7.8,29.2c0.6,2.2,1.2,4.4,1.8,6.5c0.6,2.1,1.2,4.2,1.7,6.3c0.3-2.1,0.7-4.2,1.2-6.2c0.5-2.1,1-4.3,1.5-6.5
		l6.9-29.1c0.2-1,0.8-1.8,1.8-2.4c1-0.6,2.1-0.9,3.4-0.9h14.8l-20.2,65H131c-0.8,0-1.5-0.3-2.1-0.8c-0.6-0.5-1-1.3-1.4-2.5
		l-9.3-32.4c-0.4-1.5-0.8-2.9-1.2-4.3c-0.4-1.4-0.7-2.8-1-4.3c-0.3,1.5-0.6,2.9-1,4.4c-0.4,1.4-0.8,2.9-1.2,4.4l-9.4,32.3
		c-0.6,2.2-2,3.3-4.1,3.3h-15L65,28.8z"/>
	<path d="M203.4,27.8c4.9,0,9.4,0.8,13.5,2.3c4.1,1.5,7.5,3.8,10.4,6.6c2.9,2.9,5.2,6.4,6.8,10.5c1.6,4.1,2.4,8.7,2.4,13.9
		c0,5.2-0.8,9.8-2.4,14c-1.6,4.2-3.9,7.7-6.8,10.6c-2.9,2.9-6.4,5.1-10.4,6.7c-4.1,1.6-8.5,2.3-13.5,2.3c-5,0-9.5-0.8-13.6-2.3
		c-4.1-1.6-7.6-3.8-10.5-6.7c-2.9-2.9-5.2-6.4-6.8-10.6c-1.6-4.2-2.4-8.8-2.4-14c0-5.1,0.8-9.8,2.4-13.9c1.6-4.1,3.9-7.6,6.8-10.5
		c2.9-2.9,6.5-5.1,10.5-6.6C193.9,28.6,198.4,27.8,203.4,27.8z M203.4,80.4c4.5,0,7.8-1.6,9.9-4.7c2.1-3.2,3.2-7.9,3.2-14.4
		c0-6.4-1.1-11.2-3.2-14.3c-2.1-3.1-5.4-4.7-9.9-4.7c-4.6,0-8,1.6-10.1,4.7c-2.1,3.1-3.2,7.9-3.2,14.3c0,6.4,1.1,11.2,3.2,14.4
		C195.4,78.8,198.8,80.4,203.4,80.4z"/>
	<path d="M271.3,93.8V2.5h33.6c6.3,0,11.7,0.6,16.1,1.8c4.4,1.2,8,2.8,10.8,5c2.8,2.1,4.8,4.7,6.1,7.8c1.3,3.1,1.9,6.5,1.9,10.2
		c0,2-0.3,4-0.9,5.9c-0.6,1.9-1.5,3.7-2.8,5.4s-2.9,3.2-4.8,4.5c-2,1.4-4.3,2.5-7.1,3.5c6,1.5,10.5,3.8,13.3,7.1
		c2.9,3.3,4.3,7.5,4.3,12.6c0,3.9-0.8,7.5-2.3,10.8c-1.5,3.3-3.7,6.3-6.6,8.7c-2.9,2.5-6.5,4.4-10.7,5.8c-4.3,1.4-9.1,2.1-14.6,2.1
		H271.3z M292.5,40.9h11c2.3,0,4.4-0.2,6.3-0.5s3.5-0.9,4.8-1.8c1.3-0.8,2.3-2,3-3.4c0.7-1.5,1-3.3,1-5.5c0-2.2-0.3-4-0.8-5.4
		c-0.5-1.4-1.4-2.6-2.5-3.5s-2.6-1.5-4.3-1.9c-1.7-0.4-3.8-0.6-6.2-0.6h-12.4V40.9z M292.5,55.1v22.7h14.9c2.8,0,5.1-0.4,6.9-1.1
		c1.8-0.7,3.2-1.6,4.2-2.8c1-1.1,1.7-2.4,2.1-3.8c0.4-1.4,0.6-2.9,0.6-4.3c0-1.7-0.2-3.2-0.7-4.5c-0.4-1.3-1.2-2.5-2.3-3.4
		c-1.1-0.9-2.5-1.6-4.2-2.1c-1.8-0.5-4-0.8-6.6-0.8H292.5z"/>
	<path d="M381.3,27.8c4.3,0,8.2,0.7,11.8,2c3.6,1.3,6.6,3.3,9.2,5.8c2.6,2.5,4.6,5.7,6,9.4c1.4,3.7,2.2,7.9,2.2,12.6
		c0,1.5-0.1,2.7-0.2,3.6c-0.1,0.9-0.4,1.7-0.7,2.2c-0.3,0.5-0.8,0.9-1.3,1.1c-0.6,0.2-1.3,0.3-2.2,0.3h-37.5c0.6,5.4,2.3,9.4,5,11.8
		c2.7,2.4,6.1,3.7,10.3,3.7c2.3,0,4.2-0.3,5.8-0.8c1.6-0.5,3.1-1.1,4.4-1.8c1.3-0.7,2.4-1.3,3.5-1.8c1.1-0.5,2.2-0.8,3.4-0.8
		c1.5,0,2.7,0.6,3.5,1.7l5.6,7c-2,2.3-4.2,4.2-6.5,5.6s-4.7,2.6-7.1,3.4c-2.4,0.8-4.9,1.4-7.3,1.7c-2.4,0.3-4.8,0.5-7,0.5
		c-4.6,0-8.8-0.7-12.8-2.2c-4-1.5-7.5-3.7-10.5-6.6c-3-2.9-5.3-6.6-7.1-10.9c-1.7-4.3-2.6-9.4-2.6-15.2c0-4.3,0.7-8.5,2.2-12.3
		c1.5-3.9,3.6-7.3,6.4-10.2c2.8-2.9,6.1-5.2,10.1-7C371.9,28.7,376.4,27.8,381.3,27.8z M381.7,41.2c-3.7,0-6.6,1.1-8.7,3.2
		c-2.1,2.1-3.5,5.1-4.1,9.1h24.2c0-1.5-0.2-3-0.6-4.5c-0.4-1.5-1-2.8-1.9-3.9c-0.9-1.1-2.1-2.1-3.5-2.8
		C385.6,41.6,383.8,41.2,381.7,41.2z"/>
	<path d="M466.5,93.8c-1.8,0-3.2-0.3-4.2-0.8c-0.9-0.5-1.7-1.5-2.3-3.1l-1.4-3.6c-1.6,1.4-3.2,2.6-4.7,3.6c-1.5,1-3.1,1.9-4.7,2.7
		c-1.6,0.7-3.3,1.3-5.1,1.6c-1.8,0.4-3.8,0.5-6,0.5c-3,0-5.7-0.4-8.1-1.2c-2.4-0.8-4.5-1.9-6.2-3.4c-1.7-1.5-3-3.4-3.9-5.6
		c-0.9-2.2-1.4-4.8-1.4-7.8c0-2.3,0.6-4.7,1.8-7.1c1.2-2.4,3.2-4.6,6.1-6.6c2.9-2,6.8-3.7,11.7-5c4.9-1.3,11-2,18.5-2v-2.8
		c0-3.8-0.8-6.6-2.4-8.3s-3.8-2.6-6.7-2.6c-2.3,0-4.2,0.3-5.6,0.8c-1.5,0.5-2.8,1.1-3.9,1.7c-1.1,0.6-2.3,1.2-3.4,1.7
		c-1.1,0.5-2.4,0.8-3.9,0.8c-1.3,0-2.5-0.3-3.4-1c-0.9-0.6-1.7-1.5-2.2-2.4l-3.5-6.1c3.9-3.5,8.3-6,13.1-7.7
		c4.8-1.7,9.9-2.5,15.4-2.5c3.9,0,7.5,0.6,10.6,1.9c3.2,1.3,5.8,3,8,5.3c2.2,2.3,3.9,5,5,8.1c1.2,3.1,1.8,6.6,1.8,10.3v40.6H466.5z
		 M444.2,82c2.5,0,4.7-0.4,6.6-1.3c1.9-0.9,3.8-2.3,5.7-4.3v-8.9c-3.9,0-7.1,0.3-9.6,0.8c-2.5,0.5-4.5,1.1-6,1.9
		c-1.5,0.8-2.5,1.6-3,2.6c-0.6,1-0.8,2-0.8,3.2c0,2.2,0.6,3.8,1.8,4.7C440.1,81.5,441.9,82,444.2,82z"/>
	<path d="M489.2,93.8v-65h11.5c1,0,1.8,0.1,2.4,0.3c0.6,0.2,1.2,0.4,1.6,0.8c0.4,0.4,0.8,0.8,1,1.4c0.2,0.6,0.4,1.3,0.6,2.1l1.1,6.1
		c2.4-3.7,5.1-6.6,8-8.7c3-2.1,6.2-3.2,9.7-3.2c3,0,5.3,0.7,7.1,2.1L529.8,44c-0.2,0.9-0.5,1.5-1,1.8c-0.5,0.4-1.2,0.5-2,0.5
		c-0.7,0-1.5-0.1-2.5-0.3c-1-0.2-2.2-0.3-3.6-0.3c-5.1,0-9.1,2.7-12,8.1v39.9H489.2z"/>
	<path d="M586.6,93.8c-1.2,0-2.2-0.3-3-0.8c-0.8-0.5-1.4-1.4-1.7-2.4l-1.5-4.9c-1.3,1.4-2.7,2.6-4.1,3.8c-1.4,1.1-3,2.1-4.6,2.9
		c-1.7,0.8-3.4,1.4-5.3,1.9c-1.9,0.4-4,0.7-6.2,0.7c-3.4,0-6.5-0.8-9.4-2.3s-5.4-3.7-7.5-6.5c-2.1-2.8-3.7-6.3-4.9-10.4
		c-1.2-4.1-1.8-8.8-1.8-14.1c0-4.8,0.7-9.3,2-13.5c1.3-4.2,3.2-7.7,5.7-10.8c2.4-3,5.4-5.4,8.8-7.1c3.4-1.7,7.2-2.6,11.3-2.6
		c3.3,0,6.2,0.5,8.5,1.5c2.3,1,4.4,2.3,6.3,3.9V0h19.4v93.8H586.6z M566.9,79.9c1.4,0,2.7-0.1,3.9-0.4c1.1-0.3,2.2-0.7,3.2-1.2
		c1-0.5,1.9-1.1,2.7-1.9c0.9-0.8,1.7-1.6,2.5-2.6V46.2c-1.5-1.6-3.1-2.8-4.8-3.4c-1.7-0.6-3.5-1-5.4-1c-1.8,0-3.4,0.4-5,1.1
		c-1.5,0.7-2.8,1.8-3.9,3.4c-1.1,1.6-2,3.6-2.6,6.1c-0.6,2.5-0.9,5.5-0.9,9.1c0,3.4,0.2,6.3,0.8,8.6c0.5,2.3,1.2,4.2,2.1,5.7
		s2,2.5,3.2,3.1C564,79.6,565.4,79.9,566.9,79.9z"/>
	<path d="M653.4,43c-0.5,0.8-1,1.4-1.6,1.7c-0.6,0.3-1.3,0.5-2.2,0.5c-0.9,0-1.8-0.2-2.8-0.6c-0.9-0.4-1.9-0.8-3-1.3
		c-1.1-0.5-2.3-0.9-3.6-1.3c-1.3-0.4-2.9-0.6-4.6-0.6c-2.5,0-4.4,0.5-5.7,1.4c-1.3,0.9-2,2.2-2,3.9c0,1.2,0.4,2.2,1.3,3
		c0.9,0.8,2,1.5,3.4,2.1c1.4,0.6,3,1.2,4.8,1.7c1.8,0.5,3.6,1.1,5.5,1.8c1.9,0.7,3.7,1.5,5.5,2.4c1.8,0.9,3.4,2,4.8,3.3
		c1.4,1.3,2.6,2.9,3.4,4.8c0.9,1.9,1.3,4.1,1.3,6.8c0,3.2-0.6,6.2-1.8,8.9c-1.2,2.7-2.9,5.1-5.2,7c-2.3,2-5.2,3.5-8.6,4.6
		c-3.4,1.1-7.3,1.6-11.7,1.6c-2.2,0-4.4-0.2-6.6-0.6c-2.2-0.4-4.4-1-6.4-1.7c-2.1-0.7-4-1.6-5.7-2.5c-1.8-1-3.3-2-4.5-3.2l4.5-7.1
		c0.5-0.8,1.2-1.5,1.9-2c0.8-0.5,1.7-0.7,2.9-0.7c1.1,0,2.1,0.2,3,0.8c0.9,0.5,1.9,1,2.9,1.6s2.3,1.1,3.7,1.6
		c1.4,0.5,3.2,0.8,5.3,0.8c1.5,0,2.8-0.2,3.8-0.5c1-0.3,1.9-0.7,2.5-1.3c0.6-0.5,1.1-1.1,1.4-1.8c0.3-0.7,0.4-1.4,0.4-2.1
		c0-1.3-0.4-2.4-1.3-3.2c-0.9-0.8-2-1.6-3.4-2.2c-1.4-0.6-3-1.2-4.9-1.7c-1.8-0.5-3.7-1.1-5.5-1.8c-1.9-0.7-3.7-1.5-5.5-2.4
		c-1.8-0.9-3.4-2.1-4.9-3.6c-1.4-1.4-2.6-3.2-3.4-5.3c-0.9-2.1-1.3-4.6-1.3-7.6c0-2.8,0.5-5.4,1.6-7.9c1.1-2.5,2.7-4.7,4.8-6.5
		c2.1-1.9,4.8-3.4,8-4.5c3.2-1.1,7-1.7,11.3-1.7c2.3,0,4.6,0.2,6.8,0.6c2.2,0.4,4.2,1,6.2,1.8c1.9,0.8,3.7,1.6,5.3,2.7
		c1.6,1,3,2.1,4.2,3.4L653.4,43z"/>
</g>
</svg>
