<svg id="Layer_3" data-name="Layer 3" xmlns="http://www.w3.org/2000/svg" viewBox="0 0 11 12.6179">
  <defs>
    <style>
      .cls-1 {
        fill: #ff5959;
      }
    </style>
  </defs>
  <title>mark</title>
  <g>
    <path class="cls-1" d="M59.6463,16.9467l-5.2545-3.0336a0.2721,0.2721,0,0,0-.2455,0l-5.2545,3.0336a0.2723,0.2723,0,0,0-.1227.2126v6.0671a0.2724,0.2724,0,0,0,.1227.2126l5.2545,3.0336a0.2725,0.2725,0,0,0,.2455,0l5.2545-3.0336a0.2724,0.2724,0,0,0,.1227-0.2126V17.1593A0.2723,0.2723,0,0,0,59.6463,16.9467ZM58.769,22.791l-4.5,2.5981-4.5-2.5981V17.5947l4.5-2.5981,4.5,2.5981V22.791Z" transform="translate(-48.769 -13.8839)"/>
    <path class="cls-1" d="M51.769,17.3062a0.4474,0.4474,0,0,0,.25.5h1.75v1.7758h0.01a0.6465,0.6465,0,0,0,.9791,0h0.01V17.8062h1.75a0.4474,0.4474,0,0,0,.25-0.5,0.4473,0.4473,0,0,0-.25-0.5h-4.5A0.4473,0.4473,0,0,0,51.769,17.3062Z" transform="translate(-48.769 -13.8839)"/>
  </g>
</svg>
