<?xml version="1.0" encoding="utf-8"?>
<!-- Generator: Adobe Illustrator 16.0.4, SVG Export Plug-In . SVG Version: 6.00 Build 0)  -->
<!DOCTYPE svg PUBLIC "-//W3C//DTD SVG 1.0//EN" "http://www.w3.org/TR/2001/REC-SVG-20010904/DTD/svg10.dtd">
<svg version="1.0" xmlns="http://www.w3.org/2000/svg" xmlns:xlink="http://www.w3.org/1999/xlink" x="0px" y="0px" width="428.3px"
	 height="120.1px" viewBox="0 0 428.3 120.1" enable-background="new 0 0 428.3 120.1" xml:space="preserve">
<g id="Vrstva_1" fill="#798483">
	<g>
		<path fill="" d="M128.2,60.4c0,2.9,1,3.9,4,3.9h4.6l0.9,6.1c-2.3,0.7-6.5,1.2-8.6,1.2c-5.8,0-9-3.5-9-9.7V43.5h-6v-5.6
			l6-0.3v-9.6h8.2v9.6h9.8v6h-9.8V60.4z"/>
		<path fill="" d="M151.6,57.6c0.7,6.1,3.2,7.3,8.9,7.3c3.2,0,8-0.3,12-0.8l0.8,5.3c-3.5,1.7-9.5,2.2-13.7,2.2
			c-12.1,0-16.7-4.9-16.7-17.5c0-13.2,4.8-17.5,16.1-17.5c10.8,0,15.2,4,15.2,11.6c0,6-2.7,9.5-8.9,9.5H151.6z M162.8,51.9
			c2.6,0,3-2.1,3-3.9c0-3.5-1.5-4.9-6.6-4.9c-5.7,0-7.6,1.8-7.8,8.8H162.8z"/>
		<path fill="" d="M208.5,69.6c-3.5,1.4-8,2-12.2,2c-11.9,0-16.2-4.6-16.2-17.5c0-12.8,4.4-17.5,16.3-17.5
			c3.3,0,8.2,0.5,11.6,1.9l-1,5.2c-3.3-0.1-6.8-0.1-9.2-0.1c-6.8,0-9.1,2.3-9.1,10.6c0,8.4,2.3,10.7,9.1,10.7c2,0,6.3-0.1,10-0.7
			L208.5,69.6z"/>
		<path fill="" d="M223.8,35.5c0,2.4-0.2,4.8-0.5,6.7c4.6-3.5,9.4-5.6,14.1-5.6c5.9,0,9.2,3.3,9.2,9.2v25h-8.3V48.3
			c0-3.7-0.9-4.8-3.5-4.8c-3.3,0-6.4,1.4-11,4.1v23.2h-8.3V23.2h8.4V35.5z"/>
		<path fill="" d="M261.6,55.8c-5.9-1.7-7.8-4.5-7.8-9.8c0-7.3,3.8-9.4,13.6-9.4c4.5,0.1,10.7,0.5,14.7,1.2l-0.6,5.7
			c-4.2-0.1-8.5-0.3-12.7-0.3c-5.6,0-7.1,0.1-7.1,2.9c0,2.6,1.4,2.7,4.6,3.6l9,2.4c5.5,1.6,8,3.7,8,9.6c0,8.2-4.5,9.9-14.9,9.9
			c-2.2,0-7.9-0.1-13.9-1.1l0.5-5.8c2.7,0.2,7.1,0.3,11.4,0.3c7.1,0,9-0.5,9-3.2c0-2.5-1.8-2.7-4.9-3.6L261.6,55.8z"/>
		<path fill="" d="M312.7,84.1V73.8c0-2.6,0.1-4.9,0.7-7.2c-3.5,3-7.9,5.1-12.5,5.1c-7.9,0-11.7-5.4-11.7-17.4
			c0-11,3.1-17.7,15.8-17.7c4.4,0,11.7,0.8,16,2.5v45H312.7z M312.8,44.1c-2.6-0.7-5.6-1-7.9-0.9c-5.4,0.2-7.2,2.4-7.2,11.6
			c0,6.8,1.1,9.9,6.1,9.9c3.4,0,5.8-1.4,9-3.3V44.1z"/>
		<path fill="" d="M360.2,70.8h-6.5l-0.6-4.5c-4.8,3.6-9.2,5.4-13.9,5.4c-6,0-9.2-3.1-9.2-9.2v-25h8.3V60
			c-0.1,3.5,1,4.7,4.1,4.7c2.9,0,5.6-1.3,9.7-3.7V37.5h8.2V70.8z"/>
		<path fill="" d="M369.3,38.2c4.8-0.9,12.2-1.6,16.7-1.6c8.2,0,12.5,2.7,12.5,11.6v22.6h-6.5l-0.9-5.1
			c-2.4,2.6-6.7,5.8-12.7,5.8c-6.1,0-10.5-3.4-10.5-9.7v-3.4c0-5.3,3.6-8.4,9.9-8.4h12.5v-2c-0.1-3.8-1.4-4.8-6.1-4.8
			c-3.1,0-8.7,0.3-13.9,0.7L369.3,38.2z M376,60.8c0,2.9,1.4,4.1,4.4,4.1c2.6,0,6.4-1.2,9.8-3.9v-5.2h-10.6
			c-2.7,0.1-3.5,1.5-3.5,3.7V60.8z"/>
		<path fill="" d="M418.5,60.4c0,2.9,1,3.9,4,3.9h4.6l0.9,6.1c-2.3,0.7-6.5,1.2-8.6,1.2c-5.9,0-9-3.5-9-9.7V43.5h-6.1v-5.6
			l6-0.3v-9.6h8.2v9.6h9.8v6h-9.8V60.4z"/>
		<path fill="" d="M87,24.5L45,0.2c-0.5-0.3-1.4-0.3-2,0L1,24.5c-0.5,0.3-1,1.1-1,1.7v48.5c0,0.6,0.4,1.4,1,1.7l42,24.3
			c0.5,0.3,1.4,0.3,2,0l42-24.3c0.5-0.3,1-1.1,1-1.7V26.2C88,25.6,87.6,24.8,87,24.5 M80,71.3L44,92L8,71.3V29.7L44,8.9l36,20.8
			V71.3z"/>
		<path fill="" d="M24,27.4c0,2.2,0.9,4,2,4h14v14.2h0.1c0.2,1,1.9,1.8,3.9,1.8s3.7-0.8,3.9-1.8H48V31.4h14c1.1,0,2-1.8,2-4
			s-0.9-4-2-4H26C24.9,23.4,24,25.2,24,27.4"/>
		<path fill="" d="M120.1,91.9c3.5-0.4,5.9-0.4,11.1-0.4c8.3,0,10.8,2,10.8,9.2c0,7.2-2.6,9.2-9.8,9.2
			c-1.6,0-3.2-0.1-4.6-0.3v9.8h-7.5V91.9z M131.1,104.5c2.7,0,3.5-0.8,3.5-3.7c0-3-0.8-3.8-3.5-3.8h-3.4v7.5H131.1z"/>
		<path fill="" d="M164.8,119.6l-2-8.3c-0.4-1.6-1.1-2.1-2.6-2.1h-3.4v10.4h-7.4V91.9c3.5-0.4,5.9-0.4,11.2-0.4
			c7.7,0,11,1.9,11,8.3c0,3.6-1.3,6.2-5.4,6.7v0.2c1.5,0.2,3.6,1.1,4.2,4.2l2.3,8.5H164.8z M160.4,103.7c2.8,0,3.6-0.7,3.6-3.3
			s-0.8-3.3-3.6-3.3h-3.6v6.6H160.4z"/>
		<path fill="" d="M186.6,113l-1.6,6.6h-7.7l7.6-25.7c0.3-1.2,1.3-2,2.5-2h7c1.2,0,2.2,0.8,2.6,2l7.5,25.7h-7.7l-1.6-6.6
			H186.6z M191.9,100.5c-0.2-0.9-0.4-2-0.5-2.9h-1.1c-0.2,0.9-0.4,2-0.6,2.9l-1.8,7.1h5.7L191.9,100.5z"/>
		<path fill="" d="M232.4,119.6h-5.5l-0.6-2.8c-1.4,1.5-4,3.4-7.8,3.4c-6.3,0-9-4.1-9-14.4c0-10.7,3.4-14.3,12.7-14.3
			c3.8,0,6.4,0.3,9.2,1.1l-0.6,5.4c-2.9-0.1-5.4-0.1-8.5-0.1c-3.8,0-4.9,1.3-4.9,8c0,6.2,1,7.9,4,7.9c1.5,0,2.8-0.3,3.9-0.7v-9.3
			h7.2V119.6z"/>
		<path fill="" d="M263.8,108.4c0,8.6-3,11.8-11.3,11.8c-8.9,0-12.1-3.2-12.1-11.8V91.9h7.5v16.4c0,4.7,1,6,4.2,6
			s4.2-1.3,4.2-6V91.9h7.5V108.4z"/>
		<path fill="" d="M292.1,119.2c-3.9,0.4-9.1,0.4-13.7,0.4c-3.8,0-6.3-2.4-6.3-5.9v-16c0-3.6,2.6-5.9,6.3-5.9
			c4.6,0,9.8,0,13.7,0.4l-0.4,5.4h-10.4c-1.1,0-1.7,0.6-1.7,1.7v3.4h10.6v5.2h-10.6v4.2c0,1.1,0.6,1.7,1.7,1.7h10.4L292.1,119.2z"/>
	</g>
</g>
</svg>
