<?xml version="1.0" encoding="utf-8"?>
<!-- Generator: Adobe Illustrator 16.0.3, SVG Export Plug-In . SVG Version: 6.00 Build 0)  -->
<!DOCTYPE svg PUBLIC "-//W3C//DTD SVG 1.1//EN" "http://www.w3.org/Graphics/SVG/1.1/DTD/svg11.dtd">
<svg version="1.1" xmlns="http://www.w3.org/2000/svg" xmlns:xlink="http://www.w3.org/1999/xlink" x="0px" y="0px" width="24px"
	 height="24px" viewBox="0 0 24 24" enable-background="new 0 0 24 24" xml:space="preserve">
<g id="Outline_Icons">
	<g fill="#798483">
		<path d="M8.5,9.5C8.224,9.5,8,9.724,8,10v0.5C8,10.776,8.224,11,8.5,11S9,10.776,9,10.5V10C9,9.724,8.776,9.5,8.5,9.5z"/>
		<path d="M16.5,11c0.276,0,0.5-0.224,0.5-0.5V10c0-0.276-0.224-0.5-0.5-0.5S16,9.724,16,10v0.5C16,10.776,16.224,11,16.5,11z"/>
		<path d="M21.425,18.237C21.334,18.09,21.173,18,21,18h-4c-0.952,0-1.826,0.438-2.424,1.235L13,21.758v-4.783
			c4.454-0.261,8-3.957,8-8.475v-8c0-0.162-0.079-0.314-0.21-0.408c-0.132-0.093-0.301-0.118-0.455-0.063
			c-1.79,0.625-3.149,1.908-3.836,3.517c-0.688-1.603-2.045-2.885-3.832-3.517c-0.107-0.037-0.226-0.037-0.333,0
			C10.546,0.66,9.188,1.944,8.5,3.547C7.813,1.942,6.455,0.658,4.666,0.028C4.513-0.023,4.344-0.001,4.211,0.092
			C4.079,0.186,4,0.338,4,0.5v8c0,4.518,3.546,8.214,8,8.475v4.783l-1.601-2.559C9.826,18.438,8.952,18,8,18H4
			c-0.173,0-0.334,0.09-0.425,0.237s-0.1,0.331-0.022,0.486l2.048,4.077C6.174,23.562,7.048,24,8,24h4.5h0.02H17
			c0.952,0,1.826-0.438,2.447-1.276l2-4C21.525,18.568,21.517,18.385,21.425,18.237z M5,8.5V1.251C6.868,2.166,8,3.931,8,6v2
			c0,0.276,0.224,0.5,0.5,0.5S9,8.276,9,8V6c0-2.245,1.336-4.133,3.5-4.967C14.664,1.867,16,3.755,16,6v2c0,0.276,0.224,0.5,0.5,0.5
			S17,8.276,17,8V6c0-2.075,1.132-3.84,3-4.751V8.5c0,4.136-3.364,7.5-7.5,7.5S5,12.636,5,8.5z M8,23
			c-0.634,0-1.218-0.292-1.553-0.724L4.809,19H8c0.634,0,1.218,0.292,1.576,0.765L11.598,23H8z M18.601,22.199
			C18.218,22.708,17.634,23,17,23h-3.598l1.998-3.199C15.782,19.292,16.366,19,17,19h3.193L18.601,22.199z"/>
	</g>
</g>
<g id="invisible_shape">
	<rect fill="none" width="24" height="24"/>
</g>
</svg>
