<?xml version="1.0" encoding="utf-8"?>
<!-- Generator: Adobe Illustrator 16.0.4, SVG Export Plug-In . SVG Version: 6.00 Build 0)  -->
<!DOCTYPE svg PUBLIC "-//W3C//DTD SVG 1.0//EN" "http://www.w3.org/TR/2001/REC-SVG-20010904/DTD/svg10.dtd">
<svg version="1.0" id="Vrstva_1" xmlns="http://www.w3.org/2000/svg" xmlns:xlink="http://www.w3.org/1999/xlink" x="0px" y="0px"
	 width="501.7px" height="501.1px" viewBox="0 0 501.7 501.1" enable-background="new 0 0 501.7 501.1" xml:space="preserve">
<g fill="#798483">
	<path fill-rule="evenodd" clip-rule="evenodd" d="M301.1,495.9c0-2.3,0-3.9,0-5.6c0-159.1,0-318.2,0-477.4c0-8.5,0.1-8.6,8.1-6.7
		c20.3,5,39.9,12.2,58.5,22c2.4,1.2,3.8,2.8,3.5,5.7c-0.2,2.3,0,4.6,0,6.9c0,141.3,0,282.5,0.1,423.8c0,4.4-1.3,6.6-5.3,8.7
		c-19.1,9.9-39.1,17-60,21.8C304.7,495.5,303.4,495.6,301.1,495.9z"/>
	<path fill-rule="evenodd" clip-rule="evenodd" d="M236.5,0c10.7,0,20.7-0.1,30.8,0c3.5,0,7,0.5,10.5,0.8c2.8,0.2,4.6,1.4,4.2,4.6
		c-0.1,1.5,0,3,0,4.6c0,160.5,0,321,0,481.5c0,8.3,0,8.3-8.2,8.6c-11,0.4-21.9,0.5-32.9,1c-3.5,0.1-4.7-1.1-4.4-4.5
		c0.2-2.3,0-4.6,0-6.9c0-161,0-321.9,0-482.9C236.5,4.7,236.5,2.4,236.5,0z"/>
	<path fill-rule="evenodd" clip-rule="evenodd" d="M171.8,12.6c0,158.7,0,316.9,0,476c-6.8-2.6-13.1-4.7-19.2-7.3
		c-7.3-3.2-14.3-6.9-21.5-10.2c-3.5-1.6-4.7-3.8-4.7-7.8c0.1-142.1,0.1-284.1,0-426.2c0-3.6,1.1-5.7,4.3-7.1
		c12-5.3,23.9-10.7,35.9-15.9C168.1,13.4,169.8,13.1,171.8,12.6z"/>
	<path fill-rule="evenodd" clip-rule="evenodd" d="M53.6,404C14.9,354.9-2.9,299,0.4,237c2.8-51.8,30.5-122.8,53.2-140.4
		C53.6,199.2,53.6,301.6,53.6,404z"/>
	<path fill-rule="evenodd" clip-rule="evenodd" d="M450.6,401.1c0-100.8,0-200.7,0-300.8c17.3,10.9,46.2,83.9,50,124
		C507.6,299.3,481.2,363.7,450.6,401.1z"/>
	<path fill-rule="evenodd" clip-rule="evenodd" d="M211.2,3.4c0,2.4,0,4.5,0,6.6c0,160.5,0,321,0,481.6c0,6.4,0,6.4-6.3,5.3
		c-3.6-0.7-7.1-1.6-10.8-2.1c-2.7-0.4-3.7-1.7-3.5-4.3c0.1-2,0-4,0-5.9c0-157.2,0-314.3,0-471.5c0-6.5,0-6.5,6.6-7.8
		c3.7-0.7,7.5-1.4,11.2-2C209,3.1,209.6,3.3,211.2,3.4z"/>
	<path fill-rule="evenodd" clip-rule="evenodd" d="M398.2,47.1c5.5,4.5,10.4,8.4,15.2,12.5c0.7,0.6,0.9,2.2,1,3.4
		c0.2,2.3,0.1,4.6,0.1,6.9c0,120.8,0,241.6,0.1,362.4c0,6.3-1.6,10.8-7,14c-3,1.9-5.8,4.3-9.4,7C398.2,317.6,398.2,182.9,398.2,47.1
		z"/>
	<path fill-rule="evenodd" clip-rule="evenodd" d="M98.2,449.8c-4.9-4.3-9.1-7.6-12.9-11.4c-1-1-0.8-3.5-0.8-5.2
		c0-35.4,0-70.8,0-106.2c0-84.8,0.3-169.6-0.3-254.5c-0.1-11.4,6.6-15.1,14.1-21C98.2,184.4,98.2,316.4,98.2,449.8z"/>
</g>
</svg>
