<?xml version="1.0" encoding="UTF-8" standalone="no"?>
<svg width="400px" height="139px" viewBox="0 0 400 139" version="1.1" xmlns="http://www.w3.org/2000/svg" xmlns:xlink="http://www.w3.org/1999/xlink" xmlns:sketch="http://www.bohemiancoding.com/sketch/ns">
    <!-- Generator: Sketch 3.5.2 (25235) - http://www.bohemiancoding.com/sketch -->
    <title>figure-green</title>
    <desc>Created with Sketch.</desc>
    <defs></defs>
    <g id="Logos" stroke="none" stroke-width="1" fill="none" fill-rule="evenodd" sketch:type="MSPage">
        <g id="figure-green" sketch:type="MSArtboardGroup" fill="#798483">
            <path d="M22.8020138,21.9449873 L22.8020138,49.5293606 L62.5760516,49.5293606 L62.5760516,69.0420779 L22.8020138,69.0420779 L22.8020138,111.430702 L0,111.430702 L0,2.50478236 L68.289331,2.50478236 L68.289331,21.9449873 L22.8020138,21.9449873 Z M161.86405,117.782781 C161.373038,118.738562 160.50289,119.558296 159.252225,120.244746 C158.00087,120.931196 156.321347,121.471931 154.214346,121.864878 C152.105274,122.256445 149.407126,122.451883 146.123354,122.451883 C143.082671,122.451883 140.570292,122.268185 138.582764,121.900789 C136.597999,121.534084 135.015159,121.02926 133.840459,120.392533 C132.662997,119.756497 131.841191,118.996153 131.375731,118.112194 C130.90889,117.230306 130.675469,116.248282 130.675469,115.170956 C130.675469,113.65027 131.128499,112.289801 132.036629,111.088859 C132.944069,109.887226 134.107719,108.796088 135.530341,107.814065 C138.718811,108.109639 141.916949,108.293336 145.12959,108.36723 C148.34223,108.441123 151.246866,108.650373 153.846951,108.991526 C156.444963,109.336823 158.554035,109.911397 160.172096,110.721463 C161.790156,111.529457 162.598151,112.840204 162.598151,114.656464 C162.598151,115.783513 162.35299,116.824928 161.86405,117.782781 L161.86405,117.782781 Z M136.745095,52.2813754 C138.437049,50.515528 141.169037,49.6336402 144.945892,49.6336402 C148.721366,49.6336402 151.454735,50.515528 153.146689,52.2813754 C154.838643,54.0472228 155.68462,56.4739681 155.68462,59.5643737 C155.68462,62.5553338 154.838643,64.9952004 153.146689,66.8832828 C151.454735,68.7706746 148.721366,69.7140253 144.945892,69.7140253 C143.082671,69.7140253 141.476351,69.4571245 140.127622,68.9419418 C138.778202,68.4274497 137.662894,67.7168291 136.781006,66.8093893 C135.899118,65.901259 135.248579,64.8356733 134.832151,63.6084888 C134.415033,62.383376 134.207164,61.0346471 134.207164,59.5643737 C134.207164,56.4739681 135.053141,54.0472228 136.745095,52.2813754 L136.745095,52.2813754 Z M181.57773,101.746511 C180.20483,99.368107 178.385116,97.4689751 176.134472,96.0463526 C173.875541,94.625802 171.315511,93.5961272 168.446096,92.9573282 C165.577371,92.3212917 162.647873,91.8661906 159.656913,91.5968592 C156.664572,91.3275277 153.735075,91.15557 150.867731,91.0816765 C147.999006,91.007783 145.434832,90.8606866 143.180045,90.6410779 C140.925257,90.4193974 139.109687,90.0285215 137.736787,89.4636161 C136.363887,88.9007824 135.678128,87.980912 135.678128,86.7060765 C135.678128,85.4312411 136.511674,84.27795 138.180148,83.2482752 C139.257474,83.4437132 140.361042,83.5797601 141.488091,83.6536536 C142.615139,83.7275471 143.76843,83.7634579 144.945892,83.7634579 C149.260029,83.7634579 153.306216,83.1868124 157.083071,82.0355932 C160.858546,80.8823022 164.130577,79.240071 166.901929,77.1068279 C169.671208,74.9742754 171.854174,72.388003 173.448755,69.3473202 C175.040572,66.3066373 175.838898,62.874388 175.838898,59.0498816 C175.838898,57.8247688 175.751193,56.647307 175.583379,55.5181868 C175.407968,54.3904477 175.168332,53.1522137 174.881045,52.2074819 C174.349979,50.4582087 173.441849,48.8056187 172.362451,47.278026 L177.601983,44.5349889 C178.948641,43.829893 179.792546,42.4348943 179.792546,40.9148982 L179.792546,34.2603399 L144.945892,34.2603399 C140.482587,34.2603399 136.340407,34.8390572 132.51521,35.9902764 C128.690013,37.1435675 125.368259,38.785108 122.548566,40.9183511 C119.727492,43.0515942 117.510687,45.6509879 115.892627,48.7137697 C114.274566,51.7786234 113.4645,55.2246846 113.4645,59.0498816 C113.4645,63.6589021 114.615719,67.6912771 116.922301,71.1490784 C119.226812,74.6048079 122.365559,77.3878994 126.33578,79.4969717 C124.572005,80.3312086 123.051318,81.2869899 121.776483,82.3663874 C120.499575,83.4437132 119.43399,84.5852641 118.576273,85.7862061 C117.718556,86.9878386 117.093569,88.2129514 116.700621,89.4636161 C116.307673,90.7149714 116.112235,91.9041733 116.112235,93.0312217 C116.112235,95.8267439 116.650898,98.1050116 117.730296,99.870859 C118.809693,101.636706 120.279967,103.0835 122.143878,104.210548 C118.614255,105.583448 115.866384,107.399018 113.905099,109.653806 C111.943813,111.908593 110.964552,114.730358 110.964552,118.112194 C110.964552,120.711587 111.650311,123.212226 113.023211,125.616182 C114.396111,128.016685 116.516923,130.139569 119.386339,131.977238 C122.253683,133.816979 125.859271,135.299683 130.19896,136.428803 C134.538649,137.555852 139.698073,138.118685 145.682065,138.118685 C151.762049,138.118685 157.154893,137.346602 161.86405,135.802435 C166.571135,134.257578 170.543428,132.210659 173.779549,129.660988 C177.01636,127.110626 179.466586,124.191488 181.134369,120.907716 C182.798699,117.621182 183.636389,114.262826 183.636389,110.831267 C183.636389,107.153857 182.949939,104.126986 181.57773,101.746511 L181.57773,101.746511 Z M102.334896,7.90384177 C101.624276,6.33757588 100.650539,4.96191377 99.4164486,3.77409308 C98.1823581,2.58834416 96.7452332,1.66294897 95.1092174,0.998598095 C93.4711297,0.334247219 91.7273813,0 89.8752098,0 C88.0706891,0 86.3870224,0.334247219 84.8200659,0.998598095 C83.2538,1.66294897 81.8650166,2.58834416 80.6537157,3.77409308 C79.4451772,4.96191377 78.4949207,6.33757588 77.8070896,7.90384177 C77.1171868,9.47010766 76.7739619,11.1565368 76.7739619,12.9603668 C76.7739619,14.7158553 77.1171868,16.365683 77.8070896,17.9091593 C78.4949207,19.4519451 79.4451772,20.804127 80.6537157,21.9670863 C81.8650166,23.1300456 83.2538,24.056822 84.8200659,24.7446531 C86.3870224,25.4317935 88.0706891,25.7757091 89.8752098,25.7757091 C91.7273813,25.7757091 93.4711297,25.4317935 95.1092174,24.7446531 C96.7452332,24.056822 98.1823581,23.1300456 99.4164486,21.9670863 C100.650539,20.804127 101.624276,19.4519451 102.334896,17.9091593 C103.047589,16.365683 103.403244,14.7158553 103.403244,12.9603668 C103.403244,11.1565368 103.047589,9.47010766 102.334896,7.90384177 L102.334896,7.90384177 Z M379.552219,63.2397119 C379.552219,61.4275947 379.32087,59.6624379 378.849886,57.9442415 C378.387188,56.2281168 377.628917,54.69569 376.575071,53.346961 C375.513629,52.0003039 374.133133,50.9084757 372.417008,50.0749294 C370.700883,49.2406925 368.618053,48.8235741 366.159541,48.8235741 C361.850238,48.8235741 358.46633,50.0624987 356.016105,52.5389667 C353.557592,55.0147442 351.945747,58.5823498 351.155018,63.2397119 L379.552219,63.2397119 Z M350.867731,76.4804597 C351.602522,82.8553276 353.533421,87.4760882 356.678384,90.3455039 C359.815059,93.2149196 363.861246,94.6472103 368.809348,94.6472103 C371.459155,94.6472103 373.742257,94.330228 375.649676,93.691429 C377.564691,93.0553925 382.831157,90.7301644 384.8836,89.4256334 C385.409142,89.0920768 385.938827,88.741946 386.44296,88.4007928 C388.18809,87.2212592 390.545776,87.581749 391.878621,89.2129307 L399.234132,98.783865 C396.879899,101.481323 394.464203,103.551722 391.742574,105.243676 C389.020946,106.93563 386.219899,108.260188 383.354627,109.215969 C380.489355,110.171751 377.820211,110.793285 374.954939,111.16068 C372.08207,111.529457 369.352154,111.713155 366.750689,111.713155 C361.403424,111.713155 356.391097,110.840936 351.706111,109.101331 C347.028722,107.361726 342.934884,104.775454 339.423216,101.341823 C335.919145,97.9095737 333.149866,93.6437781 331.114687,88.5437456 C329.079508,83.4437132 328.065717,77.5101345 328.065717,70.7437001 C328.065717,65.6436676 328.935865,60.8136572 330.675469,56.2522876 C332.415765,51.6929898 334.913641,47.6965256 338.178076,44.2642763 C341.434224,40.8327176 345.385109,38.1110889 350.021754,36.1000808 C354.650801,34.0883821 359.886881,33.0828781 365.721014,33.0828781 C370.772705,33.0828781 375.394156,33.8687734 379.583987,35.4371111 C383.782104,37.0075206 387.381477,39.2864789 390.39868,42.277439 C393.415192,45.2697803 395.770115,48.9333785 397.462069,53.2730675 C399.154023,57.6127566 400,62.5290912 400,68.0220714 C400,69.738196 399.928178,71.1373383 399.776248,72.2146641 C399.632604,73.2940616 399.361201,74.1517786 398.970325,74.7885058 C398.579449,75.4266141 398.052527,75.8679033 397.390247,76.113064 C396.727968,76.3589152 395.881991,76.4804597 394.852317,76.4804597 L350.867731,76.4804597 Z M297.461379,46.0280519 C299.815612,41.9100433 302.5255,38.6739225 305.590354,36.3189989 C308.651064,33.9668377 312.170328,32.7893759 316.145384,32.7893759 C319.576942,32.7893759 323.188055,33.5973702 325.350994,35.2161212 L325.350994,50.3249242 C325.350994,53.4464065 322.475363,55.7585133 319.420178,55.1155708 C318.208186,54.8607418 316.998267,54.6397519 315.993453,54.5244228 C315.307694,54.4456952 314.612957,54.3766358 313.902336,54.3027423 C313.192406,54.2309206 312.537724,54.192938 311.95141,54.192938 C308.619297,54.192938 305.957059,55.0768976 303.973675,56.8406732 C301.986837,58.6065206 298.933724,61.7590796 298.933724,65.5456033 L298.933724,110.535693 L276.13171,110.535693 L276.13171,34.2603399 L293.375137,34.2603399 C295.631997,34.2603399 297.461379,36.0897219 297.461379,38.3465812 L297.461379,46.0280519 Z M239.645587,102.297604 C238.177386,103.720227 236.656699,105.006802 235.088361,106.160093 C233.516571,107.311313 231.840501,108.293336 230.048411,109.101331 C228.257011,109.911397 226.321278,110.548124 224.238448,111.014965 C222.151475,111.479735 219.884257,111.713155 217.434031,111.713155 C213.268372,111.713155 209.57715,110.988723 206.364509,109.54262 C203.151868,108.097899 200.44267,106.07446 198.239677,103.474376 C196.029088,100.877054 194.360614,97.8122 193.235637,94.2805052 C192.106517,90.7508822 191.543683,86.8759625 191.543683,82.6598896 L191.543683,34.2603399 L214.345697,34.2603399 L214.345697,82.6598896 C214.345697,86.4346733 215.203414,89.35174 216.919539,91.4110895 C218.635664,93.4725109 221.161854,94.5014951 224.497421,94.5014951 C226.995988,94.5014951 229.338481,93.9752629 231.520756,92.9193456 C233.700269,91.8661906 235.823153,90.4311375 237.881812,88.6176391 L237.881812,34.2603399 L260.684516,34.2603399 L260.684516,110.535693 L243.732519,110.535693 C241.47566,110.535693 239.645587,108.706311 239.645587,106.449452 L239.645587,102.297604 Z M101.490301,110.535693 L78.6882868,110.535693 L78.6882868,34.2596493 L101.490301,34.2596493 L101.490301,110.535693 Z" id="Fill-1" sketch:type="MSShapeGroup"></path>
        </g>
    </g>
</svg>