<?xml version="1.0" encoding="utf-8"?>
<!-- Generator: Adobe Illustrator 16.0.4, SVG Export Plug-In . SVG Version: 6.00 Build 0)  -->
<!DOCTYPE svg PUBLIC "-//W3C//DTD SVG 1.0//EN" "http://www.w3.org/TR/2001/REC-SVG-20010904/DTD/svg10.dtd">
<svg version="1.0" id="Vrstva_6" xmlns="http://www.w3.org/2000/svg" xmlns:xlink="http://www.w3.org/1999/xlink" x="0px" y="0px"
	 width="351.1px" height="99.5px" viewBox="0 0 351.1 99.5" enable-background="new 0 0 351.1 99.5" xml:space="preserve">
<g fill="#798483">
	<path d="M83.8,17.1c-0.9,0-1.4-0.6-1.4-1.4V1.4c0-0.9,0.6-1.4,1.4-1.4h17.3c0.9,0,1.4,0.6,1.4,1.4v14.3c0,0.9-0.6,1.4-1.4,1.4H83.8
		z M83.8,97.9c-0.9,0-1.4-0.6-1.4-1.4V29.7c0-0.9,0.6-1.4,1.4-1.4h17.3c0.9,0,1.4,0.6,1.4,1.4v66.8c0,0.9-0.6,1.4-1.4,1.4H83.8z"/>
	<path d="M142,98.8c-15.4,0-21.6-6.8-21.6-22.2V1.4c0-0.9,0.6-1.4,1.4-1.4h17.3c0.9,0,1.4,0.6,1.4,1.4V75c0,4.8,1.9,6.6,6,6.6h3
		c0.9,0,1.4,0.6,1.4,1.4v14.3c0,0.9-0.6,1.4-1.4,1.4H142z"/>
	<path d="M163.4,79.6c-1.4-4.3-2.4-9.4-2.4-16.6c0-7.3,0.9-12.4,2.3-16.7c4-12.5,15.1-19.7,30-19.7c15.4,0,26.1,7.3,30.1,19.6
		c1.4,4.6,2.3,9.6,2.3,21.5c0,0.9-0.6,1.4-1.6,1.4h-42.2c-0.6,0-0.9,0.3-0.9,0.9c0.1,1.4,0.4,2.7,0.9,3.9c1.9,6,7.2,9.2,14.4,9.2
		c6.9,0,12-2.4,16-6.2c0.7-0.6,1.4-0.7,2,0l9.5,8.9c0.7,0.6,0.7,1.4,0.1,2c-6.6,7.1-16.8,11.7-29.7,11.7
		C178.4,99.5,167.4,92.2,163.4,79.6z M204.9,55.7c0.6,0,0.9-0.3,0.9-0.9c0-2.2-0.3-3.7-0.7-5.2c-1.6-4.8-5.9-7.6-11.7-7.6
		c-5.8,0-10.1,2.9-11.7,7.6c-0.4,1.4-0.7,3-0.7,5.2c0,0.6,0.3,0.9,0.9,0.9H204.9z"/>
	<path d="M264.9,98.8c-16.1,0-22.2-7.2-22.2-23.2V43.9c0-0.6-0.3-0.9-0.9-0.9h-4.3c-0.9,0-1.4-0.6-1.4-1.4v-12
		c0-0.9,0.6-1.4,1.4-1.4h4.3c0.6,0,0.9-0.3,0.9-0.9V8.6c0-0.9,0.6-1.4,1.4-1.4h17.1c0.9,0,1.4,0.6,1.4,1.4v18.7
		c0,0.6,0.3,0.9,0.9,0.9h8.9c0.9,0,1.4,0.6,1.4,1.4v12c0,0.9-0.6,1.4-1.4,1.4h-8.9c-0.6,0-0.9,0.3-0.9,0.9v30.8
		c0,5.2,1.7,6.9,6.3,6.9h3.5c0.9,0,1.4,0.6,1.4,1.4v14.3c0,0.9-0.6,1.4-1.4,1.4H264.9z"/>
	<path d="M288.3,79.9c-1.6-5-2.3-9.9-2.3-16.8c0-6.9,0.7-11.8,2.3-16.8c4-12.7,15.6-19.6,30.2-19.6c14.7,0,26.2,6.9,30.2,19.6
		c1.6,5,2.3,9.9,2.3,16.8c0,6.9-0.7,11.8-2.3,16.8c-4,12.7-15.6,19.6-30.2,19.6C303.9,99.5,292.4,92.6,288.3,79.9z M329.4,75
		c1-3.2,1.3-6,1.3-12c0-5.9-0.3-8.8-1.3-12c-1.6-4.9-5.5-7.5-10.8-7.5c-5.3,0-9.2,2.6-10.8,7.5c-1,3.2-1.3,6-1.3,12
		c0,5.9,0.3,8.8,1.3,12c1.6,4.9,5.5,7.5,10.8,7.5C323.9,82.5,327.8,79.9,329.4,75z"/>
	<path d="M65.2,43.4c-3.6-11.1-12-16.7-23.6-16.7c-8.4,0-14,2.7-17.4,6.8c-0.1,0.1-0.3,0.2-0.4,0.2c-0.3,0-0.6-0.3-0.6-0.6V1.4
		c0-0.9-0.6-1.4-1.4-1.4H1.4C0.6,0,0,0.6,0,1.4v7c0,0.4,0.3,0.8,0.8,0.9v0c2.3,0.2,3.9,1.4,4.6,3.7C5.8,14.4,6,15.9,6,19
		c0,3.1-0.2,4.6-0.6,6c-0.7,2.2-2.3,3.5-4.6,3.7v0C0.3,28.7,0,29.1,0,29.5v8.9c0,0.4,0.3,0.8,0.8,0.9c0,0,0.1,0,0.1,0
		c2.2,0.2,3.8,1.5,4.5,3.7C5.8,44.4,6,45.9,6,49c0,3.1-0.2,4.6-0.6,6c-0.7,2.2-2.3,3.5-4.6,3.7v0C0.3,58.7,0,59,0,59.5v8.9
		c0,0.4,0.3,0.8,0.8,0.9v0c2.3,0.2,3.9,1.4,4.6,3.7c0.4,1.4,0.6,2.9,0.6,6c0,3.1-0.2,4.6-0.6,6c-0.7,2.2-2.3,3.5-4.6,3.7v0
		C0.3,88.6,0,89,0,89.4v7.1c0,0.9,0.6,1.4,1.4,1.4h20.3c0.9,0,1.4-0.6,1.4-1.4v-3.4c0-0.3,0.3-0.6,0.6-0.6c0.2,0,0.3,0.1,0.4,0.2
		c3.3,4.1,9,6.8,17.4,6.8c11.7,0,20-5.8,23.6-16.7c1.7-5.5,2.5-10.8,2.5-19.7C67.7,54,67,48.8,65.2,43.4z M45.9,75
		c-1.6,4.9-5.3,7.5-10.8,7.5c-5.3,0-9.1-2.6-10.7-7.5c-0.9-2.7-1.3-5.8-1.3-11.9c0-6.2,0.4-9.2,1.3-12c1.6-5,5.3-7.5,10.7-7.5
		c5.5,0,9.2,2.5,10.8,7.5c0.9,2.7,1.3,5.8,1.3,12C47.2,69.3,46.8,72.3,45.9,75z"/>
</g>
</svg>
