<?xml version="1.0" encoding="utf-8"?>
<!-- Generator: Avocode 2.4.3-3630f5a - http://avocode.com -->
<svg height="58" width="150" xmlns:xlink="http://www.w3.org/1999/xlink" xmlns="http://www.w3.org/2000/svg" viewBox="0 0 150 58">
    <path fill="#798483" fill-rule="evenodd" d="M 49.71 32.29 L 41.71 24.29 C 41.62 24.2 41.5 24.13 41.38 24.08 C 41.26 24.03 41.14 24 41.01 24 C 41.01 24 41 24 41 24 L 33 24 C 32.45 24 32 24.45 32 25 C 32 28.86 28.86 32 25 32 C 21.14 32 18 28.86 18 25 C 18 24.45 17.55 24 17 24 L 9 24 C 9 24 8.99 24 8.99 24 C 8.86 24 8.74 24.03 8.62 24.08 C 8.49 24.13 8.38 24.2 8.29 24.29 L 0.29 32.29 C -0.1 32.68 -0.1 33.32 0.29 33.71 L 8.29 41.71 C 8.49 41.9 8.74 42 9 42 C 9.26 42 9.51 41.9 9.71 41.71 L 11.98 39.43 C 11.99 39.94 12 40.46 12 41 L 12 57 C 12 57.55 12.45 58 13 58 L 37 58 C 37.55 58 38 57.55 38 57 L 38 41 C 38 40.46 38.01 39.94 38.02 39.43 L 40.29 41.71 C 40.49 41.9 40.74 42 41 42 C 41.26 42 41.51 41.9 41.71 41.71 L 49.71 33.71 C 50.1 33.32 50.1 32.68 49.71 32.29 L 49.71 32.29 Z M 37.89 26 C 37.35 27.53 36.61 30.32 36.24 34.83 L 32.02 30.61 C 33.06 29.32 33.75 27.73 33.94 26 L 37.89 26 L 37.89 26 Z M 17.97 30.61 L 13.76 34.83 C 13.39 30.32 12.65 27.53 12.11 26 L 16.06 26 C 16.25 27.73 16.94 29.32 17.97 30.61 L 17.97 30.61 Z M 9 39.59 L 2.41 33 L 9.41 26 L 9.97 26 C 10.44 27.14 11.53 30.36 11.88 36.7 L 9 39.59 L 9 39.59 Z M 25 42.41 L 36 53.41 L 36 56 L 14 56 L 14 53.41 L 25 42.41 L 25 42.41 Z M 36 41 L 36 50.59 L 25.71 40.29 C 25.32 39.9 24.68 39.9 24.29 40.29 L 14 50.59 L 14 41 C 14 39.74 13.97 38.59 13.92 37.49 L 19.39 32.02 C 20.93 33.26 22.88 34 25 34 C 27.12 34 29.07 33.26 30.61 32.02 L 36.08 37.49 C 36.03 38.59 36 39.74 36 41 L 36 41 Z M 40.03 26 L 40.59 26 L 47.59 33 L 41 39.59 L 38.12 36.7 C 38.47 30.36 39.55 27.14 40.03 26 Z M 16.08 17.38 C 16.13 17.51 16.21 17.62 16.3 17.72 L 20.29 21.71 C 20.29 21.71 20.29 21.71 20.3 21.71 L 24.29 25.71 C 24.49 25.9 24.74 26 25 26 C 25.26 26 25.51 25.9 25.71 25.71 L 29.7 21.71 C 29.71 21.71 29.71 21.71 29.71 21.71 L 33.7 17.71 C 33.8 17.62 33.87 17.5 33.92 17.38 C 33.97 17.26 34 17.13 34 17 L 34 9 C 34 4.04 29.96 0 25 0 C 20.04 0 16 4.04 16 9 L 16 17 C 16 17.03 16.01 17.06 16.02 17.08 C 16.03 17.18 16.04 17.28 16.08 17.38 Z M 32 16.59 L 30 18.59 L 30 13 C 30 12.45 29.55 12 29 12 C 28.45 12 28 12.45 28 13 L 28 20.59 L 26 22.59 L 26 12.2 C 26 11.65 25.55 11.2 25 11.2 C 24.45 11.2 24 11.65 24 12.2 L 24 22.59 L 22 20.59 L 22 13 C 22 12.45 21.55 12 21 12 C 20.45 12 20 12.45 20 13 L 20 18.59 L 18 16.59 L 18 13 C 18 11.58 20.99 10 25 10 C 29.01 10 32 11.58 32 13 L 32 16.59 L 32 16.59 Z M 25 2 C 28.86 2 32 5.14 32 9 L 32 9.79 C 30.38 8.68 27.89 8 25 8 C 22.11 8 19.62 8.68 18 9.79 L 18 9 C 18 5.14 21.14 2 25 2 Z M 149.27 34.94 C 148.86 34.57 148.23 34.6 147.86 35.01 C 147.79 35.09 140.68 42.94 134.67 42.94 C 133.7 42.94 133 42.65 132.54 42.05 C 131.52 40.72 131.75 38.12 132.04 36.64 C 137.63 36.06 143.72 29.74 143.72 25.55 C 143.72 24.53 143.35 23.68 142.64 23.1 C 141.94 22.51 140.94 22.21 139.66 22.21 C 136.69 22.21 134.05 23.7 131.96 25.45 L 138.92 11.47 C 139.17 10.97 138.97 10.37 138.47 10.13 C 137.98 9.88 137.38 10.08 137.13 10.58 L 126.89 31.14 C 126.82 31.21 126.75 31.28 126.71 31.38 C 124.21 36.25 117 43.05 110.94 43.05 C 108.64 43.05 107.48 41.55 107.48 38.6 C 107.48 32.66 112.28 24.41 117 24.41 C 118.27 24.41 119.18 24.7 119.7 25.29 C 120.35 26.03 120.24 27.05 120.24 27.05 C 120.17 27.6 120.55 28.1 121.1 28.18 C 121.64 28.25 122.15 27.87 122.23 27.32 C 122.23 27.25 122.47 25.42 121.22 23.99 C 120.3 22.94 118.88 22.41 117 22.41 C 112.48 22.41 108.57 27.35 106.68 32.51 C 106.64 32.57 106.6 32.61 106.57 32.67 C 104.98 36.26 100.88 43.05 96.77 43.05 C 95.92 43.05 95.58 42.72 95.41 42.48 C 94.57 41.32 95.06 38.48 95.57 36.95 C 95.61 36.83 95.62 36.71 95.61 36.59 C 96.67 34.63 97.59 32.58 98.42 30.74 C 99.37 28.6 100.2 26.75 100.91 25.79 C 101.25 25.35 101.16 24.72 100.72 24.39 C 100.27 24.06 99.65 24.15 99.31 24.59 C 99.13 24.83 98.95 25.11 98.77 25.42 C 98.62 24.83 98.38 24.32 98.05 23.88 C 97.2 22.73 95.84 22.15 93.99 22.15 C 89.46 22.15 85.37 26.34 82.96 31.09 C 82.95 31.1 82.94 31.11 82.93 31.12 C 81.63 33.57 76.81 36.6 69.38 39.71 C 72.73 33.47 76.39 25.92 80.39 17.49 C 81.4 15.37 82.39 13.29 83.35 11.28 C 83.52 10.93 83.47 10.5 83.21 10.2 C 82.96 9.9 82.55 9.78 82.17 9.89 C 70.96 13.14 63.55 17.78 60.74 23.3 C 59.08 26.57 61.12 28.85 62.43 29.6 C 62.9 29.88 63.51 29.71 63.79 29.24 C 64.06 28.76 63.9 28.15 63.43 27.87 C 63.07 27.66 61.36 26.49 62.53 24.2 C 64.9 19.54 71.11 15.5 80.56 12.47 C 79.91 13.83 79.25 15.22 78.58 16.63 C 74.91 24.35 70.61 33.4 66.46 40.88 C 65.22 41.36 63.91 41.84 62.56 42.31 C 54 45.33 49.41 51.33 50.06 55.16 C 50.37 56.94 51.79 58 53.87 58 C 57.85 58 62.45 52.15 67.86 42.47 C 72.46 40.66 77.71 38.27 81.22 35.68 C 80.9 36.95 80.72 38.19 80.72 39.31 C 80.72 40.97 81.09 42.31 81.82 43.3 C 82.66 44.44 83.95 45.05 85.54 45.05 C 88.56 45.05 90.97 43.24 92.96 40.71 C 92.99 41.77 93.2 42.84 93.79 43.65 C 94.24 44.29 95.14 45.05 96.77 45.05 C 100.32 45.05 103.39 41.76 105.49 38.68 C 105.5 40.5 105.91 41.99 106.72 43.08 C 107.66 44.37 109.12 45.05 110.94 45.05 C 115.03 45.05 119.34 42.54 122.78 39.41 L 120.82 43.34 C 120.57 43.83 120.78 44.44 121.27 44.68 C 121.41 44.75 121.57 44.79 121.72 44.79 C 122.08 44.79 122.44 44.58 122.61 44.23 L 128.5 32.4 C 128.62 32.32 128.72 32.22 128.8 32.1 C 128.84 32.02 133.67 24.21 139.66 24.21 C 140.44 24.21 141.03 24.36 141.36 24.63 C 141.52 24.76 141.72 25 141.72 25.55 C 141.72 28.65 136.06 34.68 131.23 34.68 C 130.78 34.68 130.38 34.98 130.27 35.42 C 130.12 35.94 128.93 40.63 130.95 43.26 C 131.54 44.03 132.66 44.94 134.67 44.94 C 141.57 44.94 149.03 36.7 149.35 36.35 C 149.72 35.94 149.68 35.31 149.27 34.94 Z M 53.87 56 C 52.23 56 52.08 55.11 52.03 54.82 C 51.65 52.56 55.05 47.08 63.22 44.2 C 63.76 44.01 64.32 43.81 64.91 43.59 C 60.69 50.82 56.73 56 53.87 56 L 53.87 56 Z M 85.54 43.05 C 84.58 43.05 83.89 42.74 83.43 42.12 C 82.96 41.49 82.72 40.52 82.72 39.31 C 82.72 33.61 88.18 24.15 93.99 24.15 C 95.19 24.15 95.99 24.45 96.44 25.06 C 97.15 26.02 97.14 27.87 96.4 30.27 C 96.39 30.32 96.38 30.37 96.37 30.41 C 93.91 35.9 90.57 43.05 85.54 43.05 L 85.54 43.05 Z M 85.54 43.05" />
</svg>