<?xml version="1.0" encoding="utf-8"?>
<!-- Generator: Adobe Illustrator 16.0.4, SVG Export Plug-In . SVG Version: 6.00 Build 0)  -->
<!DOCTYPE svg PUBLIC "-//W3C//DTD SVG 1.0//EN" "http://www.w3.org/TR/2001/REC-SVG-20010904/DTD/svg10.dtd">
<svg version="1.0" id="Vrstva_1" xmlns="http://www.w3.org/2000/svg" xmlns:xlink="http://www.w3.org/1999/xlink" x="0px" y="0px"
	 width="70px" height="60px" viewBox="0 0 70 60" enable-background="new 0 0 70 60" xml:space="preserve">
<g fill="#798483">
	<polygon points="10,20 10,10 0,10 0,20 0,20 0,30 10,30 10,20 	"/>
	<polygon points="20,0 10,0 10,10 20,10 30,10 30,0 	"/>
	<rect x="30" y="10" width="10" height="10"/>
	<rect x="40" width="20" height="10"/>
	<polygon points="60,10 60,20 60,30 70,30 70,20 70,10 	"/>
	<rect x="10" y="30" width="10" height="10"/>
	<rect x="20" y="40" width="10" height="10"/>
	<rect x="30" y="50" width="10" height="10"/>
	<rect x="40" y="40" width="10" height="10"/>
	<rect x="50" y="30" width="10" height="10"/>
</g>
</svg>
