<?xml version="1.0" encoding="utf-8"?>
<!-- Generator: Adobe Illustrator 19.2.1, SVG Export Plug-In . SVG Version: 6.00 Build 0)  -->
<svg version="1.1" xmlns="http://www.w3.org/2000/svg" xmlns:xlink="http://www.w3.org/1999/xlink" x="0px" y="0px" width="24px"
	 height="24px" viewBox="0 0 24 24" enable-background="new 0 0 24 24" xml:space="preserve">
<g id="Outline_Icons_1_">
	<g fill="#798483" id="New_icons_1_">
		<path d="M14.49,13.218l7.938-7.94c0.099,0.218,0.157,0.463,0.157,0.722c0,0.449-0.16,0.867-0.439,1.146l-5,5
			c-0.195,0.195-0.195,0.512,0,0.707c0.195,0.195,0.512,0.195,0.707,0l5-5c0.465-0.465,0.732-1.141,0.732-1.853
			c0-0.532-0.149-1.043-0.418-1.461l0.686-0.686c0.195-0.195,0.195-0.512,0-0.707l-3-3c-0.195-0.195-0.512-0.195-0.707,0
			l-9.793,9.791L9.323,9.12c0.234-0.628,0.326-1.307,0.226-1.995C9.393,6.052,8.835,5.109,7.978,4.47
			C7.489,4.106,6.869,3.908,6.213,3.7C4.697,3.218,3.388,2.802,3.5,0.524c0.01-0.205-0.106-0.395-0.293-0.48
			C3.02-0.039,2.801-0.002,2.652,0.141C0.66,2.067-0.022,4.668,0.782,7.278c0.711,2.308,2.514,4.145,4.385,4.468
			c0.717,0.124,1.381,0.033,2.081-0.311l0.835,0.773l-5.937,5.937C2.052,18.239,2,18.366,2,18.499c0,0.133,0.053,0.26,0.146,0.354
			l0.397,0.397l-1.396,1.396c-0.195,0.195-0.195,0.512,0,0.707l0.397,0.397l-1.397,1.397c-0.195,0.195-0.195,0.512,0,0.707
			c0.195,0.195,0.512,0.195,0.707,0l1.397-1.396l0.396,0.396c0.195,0.195,0.512,0.195,0.707,0l1.398-1.397l0.396,0.396
			c0.195,0.195,0.512,0.195,0.707,0l6.078-6.077l8.729,8.091C20.752,23.952,20.874,24,21,24c0,0,1.915-0.042,2.364-0.489
			C23.81,23.069,24,22.318,24,21c0-0.153-0.07-0.297-0.19-0.392L14.49,13.218z M20.5,1.207L22.793,3.5L18,8.293l-2.292-2.294
			L20.5,1.207z M5.337,10.76c-1.515-0.262-2.996-1.815-3.6-3.777c-0.573-1.862-0.263-3.72,0.845-5.245
			C2.981,3.722,4.643,4.25,5.91,4.653c0.574,0.183,1.116,0.354,1.471,0.619c0.642,0.479,1.06,1.188,1.178,1.997
			c0.124,0.852-0.118,1.657-0.562,2.25C7.387,10.34,6.415,10.944,5.337,10.76z M8.109,10.87c0.003-0.002,0.005-0.006,0.008-0.009
			c0.302-0.268,0.58-0.591,0.744-0.831l0.78,0.619L8.79,11.501L8.109,10.87z M3,21.792l-0.793-0.794l1.043-1.042l0.794,0.793
			L3,21.792z M5.501,20.792l-2.294-2.293L14.999,6.706l2.295,2.295L5.501,20.792z M22.66,22.801c-0.258,0.255-1.096,0.201-1.463,0.2
			l-8.558-7.933l1.139-1.139l9.219,7.311C22.98,22.081,22.87,22.594,22.66,22.801z"/>
	</g>
</g>
<g id="Invisible_Shape">
	<rect fill="none" width="24" height="24"/>
</g>
</svg>
