<svg id="Layer_3" data-name="Layer 3" xmlns="http://www.w3.org/2000/svg" viewBox="0 0 11 12.7"><defs><style>.cls-1{fill:#ff5959;}</style></defs><title>techsquat-logo-mark</title><path class="cls-1" d="M54.27,13.84L48.77,17v6.35l5.5,3.18,5.5-3.18V17Zm4.5,8.95-4.5,2.6-4.5-2.6v-5.2l4.5-2.6,4.5,2.6v5.2Z" transform="translate(-48.77 -13.84)"/><path class="cls-1" d="M51.77,17.31a0.45,0.45,0,0,0,.25.5h1.75v1.78h0a0.65,0.65,0,0,0,1,0h0V17.81h1.75a0.45,0.45,0,0,0,.25-0.5,0.45,0.45,0,0,0-.25-0.5H52A0.45,0.45,0,0,0,51.77,17.31Z" transform="translate(-48.77 -13.84)"/></svg>