<svg id="Layer_3" data-name="Layer 3" xmlns="http://www.w3.org/2000/svg" viewBox="0 0 53.54 12.7"><defs><style>.cls-1{fill:#ff5959;}</style></defs><title>techsquat-logo-full</title><path class="cls-1" d="M64.79,21.44a0.41,0.41,0,0,0,.5.48h0.57L66,22.69a4.44,4.44,0,0,1-1.07.14,1.06,1.06,0,0,1-1.13-1.22V19.32H63V18.62l0.75,0v-1.2h1v1.2H66v0.75H64.79v2.12Z" transform="translate(-48.77 -13.84)"/><path class="cls-1" d="M67.71,21.09a0.88,0.88,0,0,0,1.11.91,14.25,14.25,0,0,0,1.5-.1l0.09,0.66a4.55,4.55,0,0,1-1.72.28c-1.51,0-2.08-.61-2.08-2.19s0.6-2.19,2-2.19,1.9,0.5,1.9,1.44a1,1,0,0,1-1.11,1.19h-1.7Zm1.41-.72a0.39,0.39,0,0,0,.37-0.48c0-.44-0.19-0.61-0.82-0.61s-1,.22-1,1.1h1.43Z" transform="translate(-48.77 -13.84)"/><path class="cls-1" d="M74.84,22.59a4.23,4.23,0,0,1-1.53.25c-1.49,0-2-.58-2-2.19s0.55-2.19,2-2.19a4.23,4.23,0,0,1,1.45.24l-0.12.65c-0.42,0-.85,0-1.16,0-0.85,0-1.14.29-1.14,1.33S72.64,22,73.49,22a9.56,9.56,0,0,0,1.25-.08Z" transform="translate(-48.77 -13.84)"/><path class="cls-1" d="M76.74,18.32a5,5,0,0,1-.07.84,3,3,0,0,1,1.76-.71,1,1,0,0,1,1.15,1.16v3.13h-1V19.93c0-.47-0.11-0.6-0.44-0.6a2.8,2.8,0,0,0-1.37.51v2.9h-1V16.79h1v1.53Z" transform="translate(-48.77 -13.84)"/><path class="cls-1" d="M81.47,20.86a1.11,1.11,0,0,1-1-1.22c0-.92.48-1.18,1.7-1.18a14.11,14.11,0,0,1,1.84.15L84,19.32c-0.53,0-1.06,0-1.59,0-0.7,0-.88,0-0.88.36s0.18,0.34.57,0.45l1.12,0.31a1.09,1.09,0,0,1,1,1.2c0,1-.56,1.23-1.86,1.23a10.83,10.83,0,0,1-1.74-.14L80.64,22c0.33,0,.88,0,1.42,0,0.88,0,1.12-.07,1.12-0.4s-0.22-.34-0.61-0.45Z" transform="translate(-48.77 -13.84)"/><path class="cls-1" d="M87.86,24.4V23.11a3.84,3.84,0,0,1,.08-0.9,2.47,2.47,0,0,1-1.56.64c-1,0-1.46-.68-1.46-2.18s0.39-2.22,2-2.22a6.49,6.49,0,0,1,2,.31V24.4h-1Zm0-5a3.71,3.71,0,0,0-1-.11c-0.67,0-.9.31-0.9,1.44,0,0.85.14,1.24,0.77,1.24a2,2,0,0,0,1.12-.42V19.39Z" transform="translate(-48.77 -13.84)"/><path class="cls-1" d="M93.8,22.74H93l-0.08-.56a2.83,2.83,0,0,1-1.74.67A1,1,0,0,1,90,21.69V18.57h1v2.81c0,0.44.12,0.59,0.51,0.59a2.5,2.5,0,0,0,1.21-.46V18.57h1v4.16Z" transform="translate(-48.77 -13.84)"/><path class="cls-1" d="M94.93,18.66a13.81,13.81,0,0,1,2.08-.2,1.29,1.29,0,0,1,1.56,1.45v2.83H97.76l-0.11-.64a2.15,2.15,0,0,1-1.59.73,1.18,1.18,0,0,1-1.32-1.21V21.2a1,1,0,0,1,1.23-1h1.56V19.9c0-.48-0.17-0.59-0.77-0.59-0.38,0-1.09,0-1.74.08Zm0.84,2.83a0.46,0.46,0,0,0,.54.51,2.06,2.06,0,0,0,1.22-.49V20.86H96.21a0.4,0.4,0,0,0-.44.47v0.16Z" transform="translate(-48.77 -13.84)"/><path class="cls-1" d="M101.08,21.44a0.41,0.41,0,0,0,.5.48h0.57l0.11,0.77a4.44,4.44,0,0,1-1.07.14,1.06,1.06,0,0,1-1.13-1.22V19.32H99.31V18.62l0.75,0v-1.2h1v1.2h1.22v0.75h-1.22v2.12Z" transform="translate(-48.77 -13.84)"/><path class="cls-1" d="M54.27,13.84L48.77,17v6.35l5.5,3.18,5.5-3.18V17Zm4.5,8.95-4.5,2.6-4.5-2.6v-5.2l4.5-2.6,4.5,2.6v5.2Z" transform="translate(-48.77 -13.84)"/><path class="cls-1" d="M51.77,17.31a0.45,0.45,0,0,0,.25.5h1.75v1.78h0a0.65,0.65,0,0,0,1,0h0V17.81h1.75a0.45,0.45,0,0,0,.25-0.5,0.45,0.45,0,0,0-.25-0.5H52A0.45,0.45,0,0,0,51.77,17.31Z" transform="translate(-48.77 -13.84)"/></svg>